<?xml version="1.0" encoding="utf-8"?>
<!-- Generator: Adobe Illustrator 16.0.0, SVG Export Plug-In . SVG Version: 6.00 Build 0)  -->
<!DOCTYPE svg PUBLIC "-//W3C//DTD SVG 1.1//EN" "http://www.w3.org/Graphics/SVG/1.1/DTD/svg11.dtd">
<svg version="1.1" id="Layer_1" xmlns="http://www.w3.org/2000/svg" xmlns:xlink="http://www.w3.org/1999/xlink" x="0px" y="0px"
	 width="231.951px" height="84.54px" viewBox="0 0 231.951 84.54" enable-background="new 0 0 231.951 84.54" xml:space="preserve">
<g>
	<polygon fill="#FFFFFF" points="0,21.135 36.5,0 73,21.135 73,63.404 36.5,84.54 0,63.404 	"/>
</g>
<line fill="none" stroke="#333333" stroke-miterlimit="10" x1="16.328" y1="61.976" x2="56.14" y2="22.164"/>
<line fill="none" stroke="#333333" stroke-miterlimit="10" x1="16.328" y1="22.164" x2="56.14" y2="61.976"/>
<g>
	<path fill="#333333" d="M14.821,44.924l-1.631-2.858h-1.064v2.858h-0.861v-7.297h1.52c0.791,0,1.409,0.181,1.855,0.542
		c0.446,0.361,0.668,0.931,0.668,1.708c0,0.277-0.034,0.521-0.101,0.734c-0.068,0.213-0.159,0.4-0.274,0.563
		c-0.115,0.162-0.25,0.301-0.405,0.416c-0.155,0.114-0.321,0.209-0.497,0.283l1.814,3.051H14.821z M12.125,38.287v3.121h0.679
		c0.527,0,0.929-0.127,1.206-0.38c0.277-0.254,0.416-0.637,0.416-1.15s-0.125-0.907-0.375-1.181c-0.25-0.273-0.676-0.41-1.277-0.41
		H12.125z"/>
</g>
<g>
	<path fill="#333333" d="M60.989,44.924l-1.631-2.858h-1.064v2.858h-0.861v-7.297h1.52c0.791,0,1.409,0.181,1.855,0.542
		c0.446,0.361,0.668,0.931,0.668,1.708c0,0.277-0.034,0.521-0.101,0.734c-0.068,0.213-0.159,0.4-0.274,0.563
		c-0.115,0.162-0.25,0.301-0.405,0.416c-0.155,0.114-0.321,0.209-0.497,0.283l1.814,3.051H60.989z M58.293,38.287v3.121h0.679
		c0.527,0,0.929-0.127,1.206-0.38c0.277-0.254,0.416-0.637,0.416-1.15s-0.125-0.907-0.375-1.181c-0.25-0.273-0.676-0.41-1.277-0.41
		H58.293z"/>
</g>
<polygon fill="#333333" points="42.307,21.463 28.862,21.463 32.125,17.288 33.659,17.696 35.845,13.177 37.788,17.077 
	39.239,16.145 "/>
<path fill-rule="evenodd" clip-rule="evenodd" fill="#333333" d="M35.458,66.672c-0.184,0.026-0.34,0.06-0.497,0.066
	c-0.368,0.021-0.716-0.05-0.929-0.38c-0.225-0.348-0.416-0.717-0.621-1.077c0.029-0.042,0.034-0.048,0.063-0.09
	c0.601,0.102,1.201,0.204,1.778,0.302c-0.081-0.306-0.155-0.384-0.51-0.602c-0.652-0.399-1.308-0.796-1.944-1.219
	c-0.837-0.559-0.993-1.19-0.565-2.093c0.042-0.089,0.05-0.197,0.064-0.298c0.067-0.513,0.122-1.027,0.2-1.537
	c0.042-0.269,0.207-0.461,0.418-0.55c-0.1,0.434-0.205,0.892-0.311,1.352c0.049,0.02,0.036,0.014,0.085,0.034
	c0.103-0.17,0.205-0.339,0.307-0.508c0.034,0.015,0.024,0.011,0.058,0.024c-0.074,0.295-0.114,0.602-0.228,0.879
	c-0.185,0.446-0.12,0.879-0.014,1.317c0.06,0.248,0.122,0.496,0.204,0.737c0.097,0.287,0.335,0.441,0.575,0.588
	c0.032-0.024,0.033-0.025,0.065-0.049c-0.091-0.297-0.142-0.615-0.283-0.885c-0.166-0.317-0.257-0.643-0.231-0.986
	c0.03-0.418,0.09-0.837,0.172-1.246c0.029-0.146,0.163-0.272,0.274-0.393c-0.299,0.941-0.261,1.845,0.186,2.808
	c0.116-0.311,0.205-0.547,0.292-0.783c0.032,0.008,0.064,0.016,0.096,0.024c0.007,0.061,0.026,0.126,0.018,0.186
	c-0.016,0.113-0.043,0.225-0.073,0.335c-0.293,1.041-0.005,1.546,1.037,1.849c0.221,0.063,0.24-0.026,0.275-0.209
	c0.06-0.318,0.165-0.627,0.25-0.939c0.037,0.008,0.072,0.015,0.109,0.022c-0.008,0.087-0.008,0.178-0.027,0.263
	c-0.129,0.598,0.023,1.089,0.53,1.457c0.21,0.153,0.442,0.16,0.65-0.008c0.048-0.038,0.089-0.094,0.143-0.116
	c0.374-0.153,0.528-0.43,0.506-0.83c-0.02-0.347,0.073-0.711-0.189-1.009c0.158-0.182,0.264-0.184,0.323,0.036
	c0.09,0.335,0.136,0.686,0.172,1.032c0.029,0.28,0.076,0.348,0.333,0.25c0.558-0.215,1.06-0.486,1.276-1.12
	c0.152-0.44,0.255-0.866,0.177-1.334c-0.031-0.179,0.012-0.37,0.021-0.555c0.038-0.004,0.075-0.007,0.112-0.01
	c0.059,0.202,0.117,0.404,0.174,0.601c0.245-0.233,0.325-0.65,0.188-0.96c-0.132-0.297-0.254-0.599-0.378-0.899
	c-0.016-0.037-0.015-0.082-0.021-0.124c0.021-0.013,0.042-0.024,0.063-0.037c0.183,0.256,0.365,0.512,0.562,0.788
	c0.029-0.136,0.056-0.265,0.083-0.394c0.027-0.002,0.055-0.004,0.083-0.005c0.03,0.243,0.071,0.486,0.086,0.731
	c0.015,0.243,0.003,0.487,0.052,0.73c0.066-0.811,0.196-1.622-0.043-2.433c0.372,0.354,0.342,0.829,0.435,1.27
	c0.151-0.598-0.056-1.171-0.168-1.799c0.272,0.208,0.421,0.439,0.469,0.725c0.094,0.564,0.196,1.132-0.077,1.683
	c-0.069,0.141-0.115,0.292-0.125,0.449c-0.044,0.663-0.314,1.264-0.529,1.877c-0.052,0.149-0.258,0.272-0.421,0.353
	c-0.465,0.229-0.942,0.436-1.418,0.641c-0.418,0.18-0.661,0.506-0.853,0.999c0.21-0.072,0.373-0.1,0.503-0.183
	c0.23-0.146,0.48-0.262,0.75-0.305c0.686-0.107,0.903-0.073,0.767,0.278c-0.025,0.066-0.06,0.128-0.087,0.192
	c-0.265,0.634-0.673,1.07-1.422,1.046c-0.158-0.005-0.316-0.001-0.441-0.001c-0.023,0.183-0.02,0.372-0.08,0.544
	c-0.124,0.355-0.106,0.701-0.106,1.05c0,0.337,0.333,1.092,0.451,1.419c0.228,0.636-1.509,2.012-1.509,2.012
	s-1.452-0.798-1.778-1.883c-0.034-0.111,0.67-1.741,0.453-2.498C35.413,67.091,35.458,66.878,35.458,66.672z"/>
<g>
	<path fill="#FFFFFF" d="M92.116,46.87l-3.553-4.786h-1.409v4.786h-0.736V36.514h2.913c1.649,0,3.186,0.656,3.186,2.673
		c0,1.569-0.736,2.881-3.105,2.881l3.602,4.802H92.116z M89.411,37.105h-2.257v4.386h2.273c1.809,0,2.321-1.009,2.321-2.305
		C91.748,37.778,90.9,37.105,89.411,37.105z"/>
	<path fill="#FFFFFF" d="M99.027,47.125c-3.281,0-4.242-2.32-4.242-5.394c0-3.073,1.104-5.378,4.258-5.378
		c3.249,0,4.177,2.305,4.177,5.378C103.221,44.805,102.148,47.125,99.027,47.125z M99.027,36.946c-2.753,0-3.474,2.033-3.474,4.786
		c0,2.689,0.72,4.802,3.474,4.802c2.753,0,3.425-2.113,3.425-4.802C102.453,38.979,101.78,36.946,99.027,36.946z"/>
	<path fill="#FFFFFF" d="M109.396,47.125c-3.009,0-4.098-2.337-4.098-5.426c0-2.881,0.976-5.346,4.193-5.346
		c0.896,0,1.633,0.112,2.417,0.368l-0.288,0.672c-0.672-0.289-1.36-0.448-2.129-0.448c-2.753,0-3.425,2.337-3.425,4.738
		c0,2.545,0.736,4.85,3.33,4.85c0.769,0,1.505-0.192,2.337-0.528l0.288,0.672C111.108,46.998,110.308,47.125,109.396,47.125z"/>
	<path fill="#FFFFFF" d="M120.276,46.87l-5.25-5.138v5.138h-0.736V36.514h0.736v4.882l4.979-4.882h0.784l-5.059,4.93l5.538,5.426
		H120.276z"/>
	<path fill="#FFFFFF" d="M132.516,46.87l-3.554-4.786h-1.408v4.786h-0.736V36.514h2.913c1.648,0,3.186,0.656,3.186,2.673
		c0,1.569-0.736,2.881-3.105,2.881l3.602,4.802H132.516z M129.811,37.105h-2.257v4.386h2.272c1.81,0,2.321-1.009,2.321-2.305
		C132.147,37.778,131.299,37.105,129.811,37.105z"/>
	<path fill="#FFFFFF" d="M135.553,46.87V36.514h0.736V46.87H135.553z"/>
	<path fill="#FFFFFF" d="M141.395,46.87h-2.097V36.514h2.097c3.697,0,4.946,1.424,4.946,5.138
		C146.341,45.381,144.948,46.87,141.395,46.87z M141.395,37.105h-1.36v9.172h1.505c2.849,0,4.033-1.633,4.033-4.61
		C145.572,38.45,144.645,37.105,141.395,37.105z"/>
	<path fill="#FFFFFF" d="M152.547,47.125c-3.281,0-4.13-2.641-4.13-5.442c0-3.186,1.153-5.33,4.274-5.33
		c0.72,0,1.553,0.176,2.289,0.368l-0.288,0.672c-0.625-0.272-1.281-0.448-1.985-0.448c-2.529,0-3.521,1.729-3.521,4.738
		c0,2.497,0.624,4.85,3.409,4.85c0.784,0,1.633-0.4,2.289-0.752v-3.218h-2.289v-0.592h2.962v4.274
		C154.483,46.757,153.699,47.125,152.547,47.125z"/>
	<path fill="#FFFFFF" d="M158.193,46.87V36.514h5.506v0.592h-4.77v4.114h4.434v0.592h-4.434v4.466h4.914v0.592H158.193z"/>
	<path fill="#FFFFFF" d="M173.618,47.125c-3.009,0-4.098-2.337-4.098-5.426c0-2.881,0.977-5.346,4.194-5.346
		c0.896,0,1.633,0.112,2.417,0.368l-0.288,0.672c-0.673-0.289-1.361-0.448-2.129-0.448c-2.753,0-3.426,2.337-3.426,4.738
		c0,2.545,0.736,4.85,3.329,4.85c0.769,0,1.505-0.192,2.337-0.528l0.288,0.672C175.331,46.998,174.531,47.125,173.618,47.125z"/>
	<path fill="#FFFFFF" d="M184.211,46.87l-3.554-4.786h-1.408v4.786h-0.736V36.514h2.913c1.648,0,3.186,0.656,3.186,2.673
		c0,1.569-0.736,2.881-3.105,2.881l3.602,4.802H184.211z M181.506,37.105h-2.257v4.386h2.272c1.81,0,2.321-1.009,2.321-2.305
		C183.843,37.778,182.994,37.105,181.506,37.105z"/>
	<path fill="#FFFFFF" d="M187.44,46.87V36.514h5.506v0.592h-4.77v4.114h4.434v0.592h-4.434v4.466h4.914v0.592H187.44z"/>
	<path fill="#FFFFFF" d="M202.388,46.87l-1.201-3.25h-4.546l-1.28,3.25h-0.752l4.209-10.356h0.497l3.905,10.356H202.388z
		 M199.025,37.602l-2.16,5.458h4.13L199.025,37.602z"/>
	<path fill="#FFFFFF" d="M207.297,37.122v9.748h-0.736v-9.748h-3.169v-0.608h7.075v0.608H207.297z"/>
	<path fill="#FFFFFF" d="M212.32,46.87V36.514h0.736V46.87H212.32z"/>
	<path fill="#FFFFFF" d="M219.489,46.87h-0.608l-3.922-10.356h0.816l3.441,9.235l3.266-9.235h0.768L219.489,46.87z"/>
	<path fill="#FFFFFF" d="M225.344,46.87V36.514h5.506v0.592h-4.77v4.114h4.434v0.592h-4.434v4.466h4.914v0.592H225.344z"/>
</g>
<g>
</g>
<g>
</g>
<g>
</g>
<g>
</g>
<g>
</g>
<g>
</g>
<g>
</g>
<g>
</g>
<g>
</g>
<g>
</g>
<g>
</g>
<g>
</g>
<g>
</g>
<g>
</g>
<g>
</g>
</svg>
