<?xml version="1.0" encoding="utf-8"?>
<!-- Generator: Adobe Illustrator 16.0.0, SVG Export Plug-In . SVG Version: 6.00 Build 0)  -->
<!DOCTYPE svg PUBLIC "-//W3C//DTD SVG 1.1//EN" "http://www.w3.org/Graphics/SVG/1.1/DTD/svg11.dtd">
<svg version="1.1" id="Layer_1" xmlns="http://www.w3.org/2000/svg" xmlns:xlink="http://www.w3.org/1999/xlink" x="0px" y="0px"
	 width="73px" height="84.54px" viewBox="68.424 -39.615 73 84.54" enable-background="new 68.424 -39.615 73 84.54"
	 xml:space="preserve">
<g>
	<g>
		<polygon fill="#FFFFFF" points="68.424,-18.48 104.924,-39.615 141.424,-18.48 141.424,23.789 104.924,44.924 68.424,23.789 		"/>
	</g>
	<line fill="none" stroke="#333333" stroke-miterlimit="10" x1="84.752" y1="22.361" x2="124.564" y2="-17.451"/>
	<line fill="none" stroke="#333333" stroke-miterlimit="10" x1="84.752" y1="-17.451" x2="124.564" y2="22.361"/>
	<g>
		<path fill="#333333" d="M83.245,5.309l-1.631-2.858H80.55v2.858h-0.86v-7.297h1.52c0.791,0,1.409,0.181,1.855,0.542
			c0.445,0.361,0.668,0.931,0.668,1.708c0,0.277-0.034,0.521-0.102,0.734c-0.067,0.213-0.159,0.4-0.273,0.563
			c-0.115,0.162-0.25,0.301-0.405,0.416c-0.155,0.114-0.321,0.209-0.497,0.283l1.814,3.051H83.245z M80.549-1.328v3.121h0.68
			c0.526,0,0.929-0.127,1.205-0.38c0.277-0.254,0.416-0.637,0.416-1.15c0-0.513-0.125-0.907-0.375-1.181
			c-0.25-0.273-0.676-0.41-1.276-0.41H80.549z"/>
	</g>
	<g>
		<path fill="#333333" d="M129.412,5.309l-1.631-2.858h-1.063v2.858h-0.86v-7.297h1.52c0.791,0,1.408,0.181,1.855,0.542
			c0.445,0.361,0.668,0.931,0.668,1.708c0,0.277-0.035,0.521-0.102,0.734c-0.068,0.213-0.159,0.4-0.273,0.563
			c-0.115,0.162-0.25,0.301-0.406,0.416c-0.154,0.114-0.32,0.209-0.496,0.283l1.814,3.051H129.412z M126.717-1.328v3.121h0.68
			c0.526,0,0.928-0.127,1.205-0.38c0.277-0.254,0.416-0.637,0.416-1.15c0-0.513-0.125-0.907-0.375-1.181
			c-0.25-0.273-0.676-0.41-1.277-0.41H126.717z"/>
	</g>
	<polygon fill="#333333" points="110.731,-18.152 97.286,-18.152 100.549,-22.327 102.083,-21.919 104.27,-26.438 106.212,-22.538 
		107.663,-23.47 	"/>
	<path fill="#333333" d="M103.882,27.057c-0.184,0.025-0.34,0.06-0.497,0.065c-0.368,0.021-0.716-0.05-0.929-0.38
		c-0.225-0.348-0.416-0.717-0.621-1.076c0.029-0.043,0.034-0.049,0.063-0.091c0.601,0.103,1.2,0.204,1.777,0.302
		c-0.081-0.306-0.154-0.384-0.51-0.602c-0.652-0.398-1.308-0.796-1.944-1.219c-0.837-0.559-0.992-1.19-0.564-2.094
		c0.042-0.088,0.05-0.197,0.063-0.297c0.067-0.514,0.122-1.027,0.2-1.537c0.042-0.27,0.207-0.461,0.418-0.551
		c-0.1,0.434-0.205,0.893-0.311,1.352c0.049,0.021,0.036,0.015,0.085,0.035c0.103-0.17,0.205-0.34,0.307-0.508
		c0.034,0.014,0.024,0.01,0.059,0.023c-0.074,0.295-0.114,0.602-0.229,0.879c-0.185,0.445-0.12,0.879-0.014,1.316
		c0.06,0.248,0.122,0.496,0.204,0.737c0.097,0.287,0.335,0.441,0.574,0.589c0.032-0.025,0.033-0.025,0.065-0.05
		c-0.091-0.297-0.142-0.614-0.283-0.885c-0.166-0.317-0.257-0.644-0.23-0.985c0.029-0.419,0.09-0.838,0.172-1.246
		c0.028-0.146,0.163-0.272,0.273-0.394c-0.299,0.94-0.261,1.845,0.187,2.808c0.116-0.311,0.205-0.547,0.292-0.783
		c0.032,0.008,0.063,0.017,0.096,0.024c0.007,0.062,0.026,0.126,0.019,0.187c-0.017,0.113-0.043,0.225-0.073,0.334
		c-0.293,1.041-0.005,1.547,1.037,1.85c0.221,0.063,0.239-0.025,0.274-0.209c0.061-0.318,0.165-0.627,0.25-0.939
		c0.037,0.008,0.072,0.016,0.109,0.022c-0.008,0.087-0.008,0.178-0.027,0.263c-0.129,0.598,0.023,1.09,0.53,1.457
		c0.21,0.153,0.442,0.16,0.65-0.008c0.048-0.038,0.089-0.094,0.143-0.115c0.374-0.154,0.528-0.431,0.506-0.83
		c-0.02-0.348,0.073-0.711-0.188-1.01c0.157-0.182,0.264-0.184,0.322,0.036c0.091,0.335,0.137,0.687,0.173,1.032
		c0.028,0.279,0.075,0.348,0.333,0.25c0.558-0.215,1.06-0.486,1.275-1.12c0.152-0.44,0.255-0.866,0.177-1.334
		c-0.03-0.179,0.013-0.37,0.021-0.556c0.038-0.004,0.075-0.006,0.112-0.01c0.059,0.202,0.116,0.404,0.174,0.602
		c0.245-0.233,0.325-0.65,0.188-0.961c-0.132-0.297-0.254-0.598-0.378-0.898c-0.016-0.037-0.015-0.082-0.021-0.124
		c0.021-0.013,0.042-0.024,0.063-0.036c0.184,0.256,0.365,0.512,0.563,0.787c0.028-0.136,0.056-0.266,0.083-0.395
		c0.026-0.002,0.055-0.004,0.083-0.004c0.029,0.242,0.07,0.486,0.086,0.73c0.015,0.243,0.003,0.487,0.052,0.73
		c0.066-0.812,0.196-1.623-0.043-2.434c0.372,0.354,0.342,0.829,0.435,1.27c0.151-0.598-0.056-1.17-0.168-1.799
		c0.272,0.209,0.421,0.439,0.47,0.726c0.094,0.563,0.195,1.132-0.077,1.683c-0.069,0.141-0.115,0.293-0.125,0.449
		c-0.044,0.663-0.314,1.264-0.529,1.877c-0.052,0.148-0.258,0.271-0.421,0.354c-0.465,0.229-0.942,0.436-1.418,0.641
		c-0.418,0.18-0.661,0.506-0.854,0.999c0.21-0.071,0.373-0.101,0.504-0.183c0.229-0.146,0.479-0.262,0.75-0.305
		c0.686-0.107,0.902-0.074,0.767,0.277c-0.025,0.066-0.061,0.128-0.087,0.191c-0.266,0.635-0.673,1.07-1.422,1.047
		c-0.158-0.006-0.316-0.002-0.441-0.002c-0.022,0.184-0.02,0.373-0.08,0.545c-0.124,0.354-0.105,0.701-0.105,1.05
		c0,0.337,0.333,1.092,0.45,1.419c0.229,0.636-1.509,2.012-1.509,2.012s-1.452-0.798-1.777-1.883
		c-0.034-0.111,0.67-1.74,0.452-2.498C103.837,27.475,103.882,27.262,103.882,27.057z"/>
</g>
</svg>
