<?xml version="1.0" encoding="utf-8"?>
<!-- Generator: Adobe Illustrator 16.0.0, SVG Export Plug-In . SVG Version: 6.00 Build 0)  -->
<!DOCTYPE svg PUBLIC "-//W3C//DTD SVG 1.1//EN" "http://www.w3.org/Graphics/SVG/1.1/DTD/svg11.dtd">
<svg version="1.1" id="Layer_1" xmlns="http://www.w3.org/2000/svg" xmlns:xlink="http://www.w3.org/1999/xlink" x="0px" y="0px"
	 width="413.104px" height="280.059px" viewBox="0 0 413.104 280.059" enable-background="new 0 0 413.104 280.059"
	 xml:space="preserve">
<g>
	<rect x="-68.716" y="62.158" fill="none" width="590.79" height="128.948"/>
</g>
<line fill="none" x1="-7966.084" y1="29.553" x2="8416.916" y2="29.553"/>
<rect x="-2.084" y="-0.447" display="none" fill="#333333" width="414" height="296"/>
<g>
	<rect x="98.916" y="206.553" fill="#FFFFFF" width="216" height="38"/>
	<polygon fill="#FFFFFF" points="99.509,247.553 106.916,255.386 106.916,247.553 	"/>
	<polygon fill="#FFFFFF" points="305.916,255.386 314.341,247.553 305.916,247.553 	"/>
	<polygon fill="#FFFFFF" points="99.509,251.469 103.426,255.386 57.676,255.553 63.676,239.887 57.676,225.553 96.343,225.553 
		96.676,248.887 	"/>
	<polygon fill="#FFFFFF" points="313.593,251.469 309.675,255.386 355.427,255.553 349.427,239.887 355.427,225.553 
		316.759,225.553 316.427,248.887 	"/>
</g>
<g>
	<path fill="#333333" d="M118.078,221.163v1.404h-0.572v-1.431c0-2.21-0.832-4.056-3.225-4.056c-2.418,0-3.25,1.846-3.25,4.056
		v9.309c0,2.21,0.832,4.03,3.25,4.03c2.393,0,3.225-1.82,3.225-4.03v-2.002h0.572v1.976c0,2.522-1.04,4.603-3.822,4.603
		c-2.756,0-3.796-2.08-3.796-4.603v-9.256c0-2.522,1.04-4.603,3.796-4.603C117.038,216.56,118.078,218.64,118.078,221.163z"/>
	<path fill="#333333" d="M123.72,216.69c2.704,0,3.744,1.587,3.744,4.083v1.638c0,2.236-0.884,3.458-2.886,3.822
		c2.028,0.312,2.886,1.638,2.886,3.64v2.86c0,0.702,0.078,1.586,0.494,2.158h-0.624c-0.364-0.572-0.442-1.378-0.442-2.158v-2.86
		c0-2.678-1.612-3.38-3.978-3.38h-2.236v8.398h-0.572V216.69H123.72z M122.914,225.947c2.522,0,3.978-0.65,3.978-3.458v-1.664
		c0-2.21-0.858-3.588-3.198-3.588h-3.016v8.71H122.914z"/>
	<path fill="#333333" d="M135.913,225.401v0.52h-5.356v8.425h6.371v0.546h-6.942V216.69h6.942v0.547h-6.371v8.164H135.913z"/>
	<path fill="#333333" d="M140.463,230.601l-1.066,4.29h-0.52l4.394-18.227h0.806l4.499,18.227h-0.572l-1.066-4.29H140.463z
		 M140.566,230.081h6.267l-3.172-12.74L140.566,230.081z"/>
	<path fill="#333333" d="M152.995,234.891v-17.654h-3.952v-0.547h8.502v0.547h-3.979v17.654H152.995z"/>
	<path fill="#333333" d="M165.059,225.401v0.52h-5.356v8.425h6.371v0.546h-6.942V216.69h6.942v0.547h-6.371v8.164H165.059z"/>
	<path fill="#333333" d="M173.638,230.601l-1.066,4.29h-0.52l4.395-18.227h0.806l4.498,18.227h-0.572l-1.066-4.29H173.638z
		 M173.742,230.081h6.266l-3.172-12.74L173.742,230.081z"/>
	<path fill="#333333" d="M187.782,234.891h-0.832l-3.276-18.201h0.572l3.172,17.421l3.146-17.316h0.702l2.964,17.213l3.068-17.317
		h0.52l-3.224,18.201h-0.754l-2.938-16.849L187.782,234.891z"/>
	<path fill="#333333" d="M205.748,225.401v0.52h-5.356v8.425h6.37v0.546h-6.942V216.69h6.942v0.547h-6.37v8.164H205.748z"/>
	<path fill="#333333" d="M216.329,221.084v0.338h-0.572v-0.363c0-2.158-0.806-3.979-3.172-3.979c-2.392,0-3.198,1.794-3.198,3.952
		c0,4.654,6.968,4.524,6.968,9.464c0,2.522-1.04,4.524-3.822,4.524c-2.756,0-3.796-2.002-3.796-4.524v-0.884h0.546v0.91
		c0,2.21,0.858,3.952,3.25,3.952s3.25-1.742,3.25-3.952c0-4.603-6.968-4.446-6.968-9.464c0-2.652,1.118-4.473,3.744-4.499
		C215.315,216.56,216.329,218.588,216.329,221.084z"/>
	<path fill="#333333" d="M218.357,221.163c0-2.548,1.092-4.603,3.848-4.603c2.808,0,3.9,2.055,3.9,4.603v9.256
		c0,2.549-1.092,4.603-3.9,4.603c-2.756,0-3.848-2.054-3.848-4.603V221.163z M218.929,230.445c0,2.236,0.858,4.057,3.276,4.057
		c2.444,0,3.328-1.82,3.328-4.057v-9.309c0-2.235-0.884-4.056-3.328-4.056c-2.418,0-3.276,1.82-3.276,4.056V230.445z"/>
	<path fill="#333333" d="M233.826,234.839h-0.648l-4.498-17.291v17.343h-0.521V216.69h0.885l4.473,17.266l4.471-17.266h0.885v18.201
		h-0.572v-17.343L233.826,234.839z"/>
	<path fill="#333333" d="M246.878,225.401v0.52h-5.355v8.425h6.369v0.546h-6.941V216.69h6.941v0.547h-6.369v8.164H246.878z"/>
	<path fill="#333333" d="M257.46,234.891v-17.654h-3.979v-0.547h8.529v0.547h-3.979v17.654H257.46z"/>
	<path fill="#333333" d="M264.246,226.051v8.84h-0.572V216.69h0.572v8.841h6.578v-8.841h0.572v18.201h-0.572v-8.84H264.246z"/>
	<path fill="#333333" d="M274.048,216.69v18.201h-0.572V216.69H274.048z"/>
	<path fill="#333333" d="M276.673,234.891h-0.547V216.69h0.807l6.396,17.031V216.69h0.545v18.201h-0.701l-6.5-17.369V234.891z"/>
	<path fill="#333333" d="M293.548,221.163v1.196h-0.572v-1.223c0-2.21-0.832-4.056-3.225-4.056c-2.418,0-3.25,1.846-3.25,4.056
		v9.309c0,2.21,0.832,4.03,3.25,4.03c2.393,0,3.225-1.82,3.225-4.03v-4.134h-2.834v-0.521h3.406v4.628
		c0,2.522-1.041,4.603-3.822,4.603c-2.758,0-3.797-2.08-3.797-4.603v-9.256c0-2.522,1.039-4.603,3.797-4.603
		C292.507,216.56,293.548,218.64,293.548,221.163z"/>
	<path fill="#333333" d="M303.14,221.084v0.338h-0.57v-0.363c0-2.158-0.807-3.979-3.174-3.979c-2.391,0-3.197,1.794-3.197,3.952
		c0,4.654,6.969,4.524,6.969,9.464c0,2.522-1.041,4.524-3.822,4.524c-2.756,0-3.797-2.002-3.797-4.524v-0.884h0.547v0.91
		c0,2.21,0.857,3.952,3.25,3.952s3.25-1.742,3.25-3.952c0-4.603-6.969-4.446-6.969-9.464c0-2.652,1.119-4.473,3.744-4.499
		C302.126,216.56,303.14,218.588,303.14,221.084z"/>
</g>
<g>
	<g>
		<path fill="#FFFFFF" d="M45.257,164.223c-5.307,0.936-7.957,1.423-13.253,2.436c-4.738-24.764-9.474-49.527-14.209-74.292
			c-6.011,1.149-9.013,1.749-15.011,2.99c-1.006-4.86-1.509-7.289-2.515-12.149c15.049-3.021,30.112-5.789,45.252-8.31
			c0.786,4.9,1.176,7.35,1.962,12.25c-6.148,0.986-9.218,1.503-15.355,2.584C36.502,114.564,40.881,139.393,45.257,164.223z"/>
		<path fill="#FFFFFF" d="M74.055,119.486c1.81,13.12,3.62,26.24,5.433,39.359c-5.331,0.735-7.994,1.123-13.316,1.937
			c-4.439-29.055-8.879-58.109-13.321-87.164c5.827-0.891,8.742-1.314,14.579-2.12c1.643,11.899,3.284,23.798,4.929,35.696
			c6.075-0.839,9.116-1.233,15.2-1.977c-1.458-11.923-2.913-23.846-4.37-35.77c5.845-0.714,8.77-1.05,14.622-1.679
			c3.142,29.223,6.281,58.445,9.426,87.668c-5.345,0.575-8.018,0.883-13.356,1.535c-1.604-13.146-3.212-26.292-4.817-39.438
			C83.054,118.268,80.053,118.658,74.055,119.486z"/>
		<path fill="#FFFFFF" d="M132.399,153.079c-5.355,0.429-8.032,0.661-13.383,1.168c-2.765-29.217-5.528-58.434-8.295-87.65
			c5.857-0.554,8.788-0.81,14.65-1.279C127.714,94.571,130.056,123.825,132.399,153.079z"/>
		<path fill="#FFFFFF" d="M175.663,150.63c-7.128-17.941-14.52-35.748-22.19-53.464c0.978,18.101,1.957,36.202,2.935,54.302
			c-4.938,0.267-7.405,0.419-12.34,0.752c-1.975-29.281-3.945-58.563-5.921-87.844c5.867-0.396,8.802-0.572,14.673-0.883
			c7.467,17.03,14.679,34.146,21.654,51.384c-0.581-17.414-1.158-34.828-1.739-52.241c5.409-0.18,8.115-0.252,13.525-0.36
			c0.587,29.341,1.171,58.683,1.758,88.024C183.075,150.399,180.604,150.466,175.663,150.63z"/>
		<path fill="#FFFFFF" d="M213.899,62.1c-0.084,11.748-0.172,23.497-0.255,35.245c5.626-11.747,11.431-23.408,17.418-34.975
			c6.108,0.147,9.163,0.243,15.27,0.482c-5.902,9.983-11.704,20.006-17.418,30.098c5.659,19.225,10.986,38.545,15.969,57.956
			c-5.684-0.234-8.525-0.329-14.211-0.477c-3.461-13.747-7.039-27.455-10.731-41.142c-2.619,4.822-3.913,7.238-6.469,12.078
			c-0.073,9.591-0.138,19.182-0.207,28.772c-5.369-0.039-8.054-0.039-13.423,0c-0.214-29.347-0.421-58.692-0.637-88.039
			C205.082,62.057,208.022,62.057,213.899,62.1z"/>
		<path fill="#FFFFFF" d="M282.939,64.946c8.098,0.61,12.144,0.955,20.23,1.726c14.04,0.753,23.43,11.021,21.434,25.101
			c-0.651,4.596-1.785,8.481-3.646,11.314c-1.861,2.834-8.523,7.191-8.523,7.191c-0.021,0.585,6.523,5.395,7.878,9.015
			c1.354,3.62,1.666,8.318,0.966,14.093c-1.062,8.75-4.063,14.858-8.852,18.392c-1.966,1.45-4.108,2.376-6.433,2.747
			c-2.325,0.371-5.649,0.327-9.988-0.093c-7.863-0.761-11.797-1.1-19.672-1.692C278.532,123.474,280.741,94.21,282.939,64.946z
			 M297.285,102.579c4.287,0.398,7.454-0.285,9.528-2.085c2.072-1.799,3.361-4.989,3.845-9.579
			c0.766-7.269-2.141-11.27-8.729-11.897c-2.177-0.208-3.266-0.308-5.443-0.504c-0.855,9.518-1.282,14.277-2.138,23.796
			C295.523,102.415,296.111,102.469,297.285,102.579z M295.75,141.944c3.723,0.354,6.526-0.348,8.42-2.133
			c1.892-1.783,3.088-4.935,3.57-9.464c0.622-5.832-0.391-10.066-3.069-12.603c-0.833-0.789-1.86-1.398-3.061-1.825
			s-2.854-0.741-4.953-0.938c-1.368-0.128-2.055-0.191-3.423-0.314c-0.964,10.729-1.445,16.091-2.409,26.818
			C292.794,141.663,293.78,141.756,295.75,141.944z"/>
		<path fill="#FFFFFF" d="M342.714,160.145c-5.324-0.789-7.989-1.161-13.322-1.872c3.881-29.091,7.758-58.182,11.64-87.271
			c5.838,0.779,8.755,1.188,14.584,2.052C351.314,102.083,347.017,131.115,342.714,160.145z"/>
		<path fill="#FFFFFF" d="M394.979,169.422c-2.563-0.531-3.846-0.79-6.412-1.303c-0.446-2.943-0.673-4.416-1.135-7.359
			c-2.443,2.66-4.802,4.397-7.085,5.216c-2.284,0.818-5.041,0.929-8.272,0.343c-3.146-0.57-5.851-1.712-8.126-3.442
			s-4.026-3.914-5.082-6.481c-1.112-2.704-1.663-5.799-1.724-9.107c-0.061-3.305,0.345-7.7,1.224-13.173
			c1.628-10.122,3.255-20.243,4.875-30.366c0.544-3.39,1.074-6.244,1.593-8.568c0.519-2.323,1.133-4.318,1.841-5.988
			c0.706-1.668,1.544-3.092,2.52-4.27c0.975-1.178,2.167-2.322,3.506-3.436c2.279-1.897,5.016-3.241,8.191-3.895
			c3.174-0.653,6.448-0.671,9.806-0.054c5.467,1.005,9.884,3.27,13.204,6.754c3.321,3.485,4.972,7.807,5.196,12.701
			c0.033,0.719,0.049,1.425,0.009,2.09c-0.04,0.665-0.113,1.508-0.226,2.517c-0.112,1.01-0.323,2.268-0.636,3.774
			c-0.312,1.508-0.728,3.512-1.245,6.01c-5.677-1.176-8.519-1.742-14.208-2.834c0.497-2.594,0.888-4.756,1.172-6.493
			c0.284-1.735,0.488-3.105,0.56-4.059c0.155-2.087-0.371-3.949-1.479-5.456s-2.689-2.454-4.734-2.83
			c-3.814-0.701-6.64,0.886-8.312,4.674c-0.326,0.738-0.723,2.219-1.203,4.413c-0.48,2.194-1.01,4.938-1.588,8.231
			c-1.926,10.973-2.89,16.462-4.815,27.435c-0.608,3.469-1.048,6.472-1.313,9.015c-0.267,2.547-0.246,4.318-0.102,5.209
			c0.238,1.468,0.783,2.841,1.812,3.875s2.278,1.688,3.755,1.959c1.739,0.319,3.27,0.066,4.598-0.759
			c1.325-0.823,2.37-2.138,3.17-3.83c0.422-0.893,0.913-2.402,1.407-4.503s1.065-4.833,1.713-8.203
			c0.269-1.4,0.402-2.102,0.671-3.502c-3.26-0.626-4.892-0.933-8.155-1.53c0.789-4.311,1.186-6.464,1.975-10.774
			c8.858,1.622,13.279,2.484,22.107,4.312C401.012,140.297,397.995,154.86,394.979,169.422z"/>
	</g>
</g>
<g>
	<g>
		<line fill="none" stroke="#FFFFFF" stroke-width="2" stroke-miterlimit="10" x1="101.916" y1="20.553" x2="147.916" y2="20.553"/>
		<line fill="none" stroke="#FFFFFF" stroke-width="2" stroke-miterlimit="10" x1="123.916" y1="8.553" x2="147.916" y2="8.553"/>
		<line fill="none" stroke="#FFFFFF" stroke-width="2" stroke-miterlimit="10" x1="123.916" y1="32.553" x2="147.916" y2="32.553"/>
	</g>
	<g>
		<line fill="none" stroke="#FFFFFF" stroke-width="2" stroke-miterlimit="10" x1="311.916" y1="20.553" x2="265.916" y2="20.553"/>
		<line fill="none" stroke="#FFFFFF" stroke-width="2" stroke-miterlimit="10" x1="289.916" y1="32.553" x2="265.916" y2="32.553"/>
		<line fill="none" stroke="#FFFFFF" stroke-width="2" stroke-miterlimit="10" x1="289.916" y1="8.553" x2="265.916" y2="8.553"/>
	</g>
</g>
<g>
	<path fill="#FFFFFF" d="M166.012,6.004c4.359,0,6.079,2.08,6.079,6.199v1.32c0,2.959-0.84,4.799-3.279,5.559
		c2.72,0.76,3.759,2.919,3.759,5.999v2.359c0,4.2-2.04,6.559-6.399,6.559h-6.439V6.004H166.012z M165.251,17.882
		c2.479,0,3.76-0.8,3.76-3.72v-1.64c0-2.479-0.84-3.679-3.08-3.679h-3.08v9.039H165.251z M166.171,31.16
		c2.28,0,3.319-1.2,3.319-3.799v-2.48c0-3.119-1.24-4.159-3.919-4.159h-2.72V31.16H166.171z"/>
	<path fill="#FFFFFF" d="M185.371,18.402v2.799h-6.839v9.958h8.398V34h-11.518V6.004h11.518v2.839h-8.398v9.559H185.371z"/>
	<path fill="#FFFFFF" d="M202.291,6.004c4.359,0,6.079,2.08,6.079,6.199v1.32c0,2.959-0.84,4.799-3.279,5.559
		c2.72,0.76,3.759,2.919,3.759,5.999v2.359c0,4.2-2.04,6.559-6.399,6.559h-6.439V6.004H202.291z M201.531,17.882
		c2.479,0,3.76-0.8,3.76-3.72v-1.64c0-2.479-0.84-3.679-3.08-3.679h-3.08v9.039H201.531z M202.451,31.16
		c2.28,0,3.319-1.2,3.319-3.799v-2.48c0-3.119-1.24-4.159-3.919-4.159h-2.72V31.16H202.451z"/>
	<path fill="#FFFFFF" d="M211.452,12.763c0-4.279,2.12-7.039,6.399-7.039c4.319,0,6.438,2.76,6.438,7.039v14.478
		c0,4.239-2.119,7.039-6.438,7.039c-4.279,0-6.399-2.799-6.399-7.039V12.763z M214.532,27.4c0,2.56,1.08,4.04,3.319,4.04
		c2.279,0,3.319-1.48,3.319-4.04V12.603c0-2.52-1.04-4.039-3.319-4.039c-2.24,0-3.319,1.52-3.319,4.039V27.4z"/>
	<path fill="#FFFFFF" d="M227.251,34V6.004h3.119V31.16h7.999V34H227.251z"/>
	<path fill="#FFFFFF" d="M247.29,6.004c4.359,0,6.359,2.639,6.359,6.958v14.118c0,4.279-2,6.919-6.359,6.919h-6.559V6.004H247.29z
		 M247.25,31.16c2.24,0,3.32-1.4,3.32-3.959V12.803c0-2.56-1.08-3.959-3.359-3.959h-3.36V31.16H247.25z"/>
</g>
<g>
	<path fill="#FFFFFF" d="M213.356,179.675c-0.24,1.224-0.516,2.31-0.828,3.258s-0.72,1.914-1.224,2.897
		c0.167,0.288,0.419,0.559,0.756,0.811c0.336,0.252,0.708,0.438,1.116,0.558v3.601c-0.864-0.145-1.59-0.372-2.178-0.685
		c-0.588-0.312-1.146-0.779-1.674-1.403c-0.675,0.72-1.325,1.229-1.952,1.529c-0.626,0.3-1.361,0.45-2.204,0.45
		c-1.615,0-2.886-0.486-3.813-1.458c-0.927-0.972-1.391-2.298-1.391-3.978c0-0.576,0.037-1.099,0.111-1.566
		c0.075-0.468,0.217-0.954,0.427-1.458s0.503-1.062,0.878-1.674c0.375-0.612,0.851-1.351,1.427-2.214
		c-0.6-1.488-1.032-2.748-1.296-3.78c-0.265-1.031-0.396-2.004-0.396-2.916c0-0.815,0.113-1.56,0.342-2.232
		c0.228-0.671,0.54-1.247,0.936-1.728c0.396-0.479,0.876-0.852,1.44-1.116c0.563-0.264,1.194-0.396,1.89-0.396
		c1.296,0,2.316,0.42,3.06,1.26c0.744,0.84,1.116,1.979,1.116,3.42c0,0.624-0.054,1.212-0.162,1.764
		c-0.108,0.553-0.301,1.122-0.576,1.71c-0.276,0.589-0.63,1.213-1.062,1.872c-0.432,0.661-0.972,1.398-1.62,2.214
		c0.167,0.36,0.366,0.751,0.594,1.171c0.228,0.42,0.461,0.84,0.702,1.26c0.24,0.42,0.486,0.834,0.738,1.242s0.486,0.779,0.702,1.115
		c0.264-0.552,0.486-1.14,0.666-1.764c0.18-0.624,0.366-1.44,0.558-2.448L213.356,179.675z M204.336,181.403
		c-0.4,0.744-0.684,1.393-0.848,1.944c-0.166,0.552-0.248,1.08-0.248,1.584c0,0.647,0.194,1.17,0.583,1.565
		c0.39,0.396,0.896,0.595,1.52,0.595c0.408,0,0.756-0.066,1.044-0.198s0.576-0.354,0.864-0.666c-0.648-0.96-1.194-1.8-1.638-2.521
		C205.169,182.987,204.744,182.219,204.336,181.403z M205.095,175.463c0.63-0.84,1.09-1.639,1.381-2.395s0.437-1.554,0.437-2.394
		c0-1.488-0.444-2.232-1.332-2.232c-0.48,0-0.852,0.252-1.116,0.756s-0.396,1.177-0.396,2.017
		C204.068,172.439,204.41,173.855,205.095,175.463z"/>
</g>
<g>
	<g>
		<g>
			<path fill="#FFFFFF" d="M194.964,272.09v0.98h-2.396v3.488h2.942v0.994h-4.034v-9.806h4.034v0.995h-2.942v3.348H194.964z"/>
		</g>
		<g>
			<path fill="#FFFFFF" d="M199.988,268.836v0.19h-0.74v-0.23c0-0.629-0.24-0.999-0.799-0.999c-0.56,0-0.8,0.37-0.8,0.989
				c0,1.569,2.349,1.719,2.349,3.688c0,1.059-0.51,1.749-1.579,1.749s-1.569-0.69-1.569-1.749v-0.4h0.729v0.44
				c0,0.629,0.26,0.999,0.819,0.999s0.82-0.37,0.82-0.999c0-1.56-2.339-1.71-2.339-3.679c0-1.079,0.5-1.749,1.549-1.749
				C199.488,267.087,199.988,267.777,199.988,268.836z"/>
			<path fill="#FFFFFF" d="M201.699,274.154v-6.286h-1.29v-0.71h3.358v0.71h-1.29v6.286H201.699z"/>
		</g>
		<line fill="none" stroke="#FFFFFF" stroke-miterlimit="10" x1="196.916" y1="277.053" x2="202.916" y2="277.053"/>
	</g>
	<g>
		<path fill="#FFFFFF" d="M212.138,270.129c0,2.955-3.32,4.02-3.334,6.275v0.154h3.222v0.994h-4.3v-0.841
			c0-3.165,3.319-3.781,3.319-6.541c0-1.009-0.336-1.541-1.148-1.541c-0.798,0-1.148,0.574-1.148,1.442v0.869h-1.022v-0.799
			c0-1.499,0.686-2.493,2.199-2.493C211.452,267.65,212.138,268.63,212.138,270.129z"/>
		<path fill="#FFFFFF" d="M213.06,270.115c0-1.498,0.743-2.465,2.241-2.465c1.513,0,2.255,0.967,2.255,2.465v5.058
			c0,1.498-0.742,2.479-2.255,2.479c-1.499,0-2.241-0.98-2.241-2.479V270.115z M214.138,275.242c0,0.883,0.378,1.415,1.163,1.415
			c0.799,0,1.163-0.532,1.163-1.415v-5.183c0-0.896-0.364-1.429-1.163-1.429c-0.784,0-1.163,0.532-1.163,1.429V275.242z"/>
		<path fill="#FFFFFF" d="M220.593,269.527c-0.364,0.225-0.84,0.393-1.359,0.42v-0.896c1.064-0.042,1.429-0.616,1.681-1.303h0.756
			v9.806h-1.079V269.527z"/>
		<path fill="#FFFFFF" d="M224.415,271.74c0.308-0.532,0.798-0.812,1.456-0.812c1.261,0,1.821,0.925,1.821,2.325v1.92
			c0,1.498-0.715,2.479-2.213,2.479c-1.499,0-2.199-0.98-2.199-2.479v-0.659h1.022v0.729c0,0.883,0.364,1.415,1.148,1.415
			s1.148-0.532,1.148-1.415v-1.904c0-0.883-0.364-1.415-1.148-1.415c-0.603,0-1.009,0.336-1.106,1.051v0.224h-1.022l0.266-5.449
			h3.866v0.98h-2.886L224.415,271.74z"/>
	</g>
</g>
<g>
</g>
<g>
</g>
<g>
</g>
<g>
</g>
<g>
</g>
<g>
</g>
<g>
</g>
<g>
</g>
<g>
</g>
<g>
</g>
<g>
</g>
<g>
</g>
<g>
</g>
<g>
</g>
<g>
</g>
</svg>
