<?xml version="1.0" encoding="utf-8"?>
<!-- Generator: Adobe Illustrator 16.0.3, SVG Export Plug-In . SVG Version: 6.00 Build 0)  -->
<!DOCTYPE svg PUBLIC "-//W3C//DTD SVG 1.1//EN" "http://www.w3.org/Graphics/SVG/1.1/DTD/svg11.dtd">
<svg version="1.1" id="Layer_1" xmlns="http://www.w3.org/2000/svg" xmlns:xlink="http://www.w3.org/1999/xlink" x="0px" y="0px"
	 width="231.951px" height="84.54px" viewBox="0 0 231.951 84.54" enable-background="new 0 0 231.951 84.54" xml:space="preserve">
<g>
	<polygon fill="#FFFFFF" points="0,21.135 36.5,0 73,21.135 73,63.404 36.5,84.54 0,63.404 	"/>
</g>
<line fill="none" stroke="#333333" stroke-miterlimit="10" x1="16.328" y1="61.976" x2="56.14" y2="22.164"/>
<line fill="none" stroke="#333333" stroke-miterlimit="10" x1="16.328" y1="22.164" x2="56.14" y2="61.976"/>
<g>
	<path fill="#333333" d="M11.122,38.187c0.446-0.092,1.084-0.143,1.692-0.143c0.942,0,1.55,0.173,1.976,0.558
		c0.344,0.304,0.537,0.77,0.537,1.297c0,0.901-0.567,1.5-1.287,1.742v0.031c0.527,0.182,0.841,0.668,1.003,1.377
		c0.223,0.953,0.385,1.611,0.527,1.875h-0.912c-0.111-0.192-0.264-0.78-0.456-1.631c-0.203-0.942-0.567-1.297-1.368-1.329h-0.831
		v2.959h-0.881V38.187z M12.003,41.297h0.902c0.942,0,1.54-0.517,1.54-1.297c0-0.882-0.638-1.267-1.57-1.277
		c-0.426,0-0.729,0.041-0.872,0.082V41.297z"/>
</g>
<g>
	<path fill="#333333" d="M57.29,38.187c0.446-0.092,1.084-0.143,1.692-0.143c0.942,0,1.55,0.173,1.976,0.558
		c0.344,0.304,0.537,0.77,0.537,1.297c0,0.901-0.567,1.5-1.287,1.742v0.031c0.527,0.182,0.841,0.668,1.003,1.377
		c0.223,0.953,0.385,1.611,0.527,1.875h-0.912c-0.111-0.192-0.264-0.78-0.456-1.631c-0.203-0.942-0.567-1.297-1.368-1.329h-0.831
		v2.959H57.29V38.187z M58.171,41.297h0.902c0.942,0,1.54-0.517,1.54-1.297c0-0.882-0.638-1.267-1.57-1.277
		c-0.426,0-0.729,0.041-0.872,0.082V41.297z"/>
</g>
<polygon fill="#333333" points="42.307,20.463 28.862,20.463 32.125,16.288 33.659,16.696 35.845,12.177 37.788,16.077 
	39.239,15.145 "/>
<path fill="#333333" d="M35.229,67.56c-0.224,0.032-0.416,0.071-0.607,0.081c-0.45,0.025-0.875-0.061-1.136-0.465
	c-0.275-0.426-0.509-0.877-0.76-1.317c0.036-0.052,0.041-0.06,0.077-0.11c0.734,0.125,1.469,0.25,2.175,0.369
	c-0.099-0.373-0.189-0.469-0.624-0.734c-0.798-0.488-1.6-0.975-2.378-1.491c-1.024-0.683-1.215-1.456-0.691-2.56
	c0.052-0.108,0.061-0.242,0.079-0.365c0.082-0.627,0.149-1.256,0.245-1.879c0.051-0.328,0.253-0.563,0.511-0.674
	c-0.122,0.53-0.25,1.092-0.38,1.653c0.06,0.024,0.044,0.017,0.104,0.042c0.125-0.208,0.25-0.414,0.376-0.621
	c0.042,0.018,0.03,0.014,0.071,0.029c-0.09,0.361-0.14,0.736-0.279,1.074c-0.226,0.547-0.147,1.076-0.018,1.611
	c0.074,0.305,0.149,0.607,0.249,0.902c0.119,0.352,0.411,0.54,0.703,0.719c0.039-0.029,0.041-0.031,0.08-0.06
	c-0.112-0.363-0.174-0.753-0.346-1.082c-0.203-0.39-0.314-0.786-0.283-1.207c0.037-0.511,0.11-1.022,0.211-1.522
	c0.036-0.181,0.199-0.334,0.335-0.48c-0.365,1.15-0.319,2.257,0.228,3.436c0.142-0.381,0.25-0.67,0.358-0.959
	c0.04,0.01,0.078,0.02,0.117,0.029c0.008,0.074,0.031,0.154,0.021,0.229c-0.02,0.138-0.053,0.273-0.09,0.408
	c-0.359,1.273-0.006,1.891,1.268,2.262c0.27,0.078,0.294-0.031,0.336-0.256c0.073-0.39,0.201-0.767,0.306-1.148
	c0.045,0.01,0.088,0.02,0.133,0.027c-0.01,0.105-0.01,0.217-0.033,0.32c-0.158,0.73,0.029,1.332,0.649,1.782
	c0.257,0.188,0.541,0.196,0.795-0.011c0.059-0.045,0.109-0.113,0.175-0.141c0.457-0.188,0.646-0.525,0.619-1.017
	c-0.023-0.424,0.089-0.869-0.231-1.233c0.193-0.223,0.323-0.225,0.395,0.045c0.11,0.41,0.166,0.838,0.21,1.262
	c0.036,0.344,0.093,0.426,0.408,0.307c0.682-0.264,1.296-0.595,1.561-1.37c0.186-0.538,0.313-1.06,0.217-1.632
	c-0.038-0.219,0.015-0.452,0.026-0.68c0.046-0.004,0.091-0.008,0.137-0.012c0.072,0.248,0.143,0.496,0.213,0.734
	c0.299-0.285,0.397-0.795,0.229-1.174c-0.161-0.363-0.311-0.732-0.462-1.1c-0.02-0.047-0.018-0.102-0.025-0.152
	c0.025-0.016,0.051-0.029,0.077-0.045c0.223,0.313,0.447,0.626,0.687,0.964c0.035-0.166,0.068-0.324,0.101-0.481
	c0.034-0.002,0.067-0.005,0.102-0.006c0.037,0.297,0.087,0.596,0.105,0.895c0.018,0.298,0.004,0.597,0.064,0.895
	c0.081-0.99,0.24-1.984-0.053-2.977c0.455,0.434,0.419,1.015,0.532,1.554c0.185-0.731-0.068-1.433-0.206-2.2
	c0.333,0.256,0.515,0.537,0.573,0.887c0.115,0.69,0.24,1.385-0.094,2.059c-0.085,0.172-0.141,0.357-0.153,0.55
	c-0.055,0.812-0.384,1.545-0.647,2.296c-0.064,0.184-0.316,0.333-0.516,0.432c-0.568,0.281-1.152,0.533-1.735,0.783
	c-0.511,0.221-0.808,0.618-1.043,1.223c0.258-0.09,0.456-0.123,0.615-0.225c0.282-0.178,0.588-0.32,0.918-0.371
	c0.839-0.133,1.104-0.091,0.938,0.34c-0.031,0.08-0.074,0.156-0.107,0.234c-0.324,0.775-0.823,1.311-1.74,1.279
	c-0.194-0.006-0.387-0.001-0.54-0.001c-0.028,0.224-0.024,0.454-0.098,0.665c-0.152,0.435-0.13,0.857-0.13,1.283
	c0,0.412,0.408,1.336,0.552,1.736c0.279,0.777-1.845,2.461-1.845,2.461s-1.776-0.977-2.175-2.304
	c-0.042-0.138,0.819-2.13,0.554-3.056C35.174,68.073,35.229,67.812,35.229,67.56z"/>
<g>
	<path fill="#FFFFFF" d="M93.209,46.87l-2.864-4.848h-2.24v4.848h-0.736V36.326h3.024c0.522,0,0.997,0.051,1.424,0.152
		c0.426,0.102,0.789,0.264,1.088,0.488c0.299,0.224,0.531,0.512,0.696,0.864s0.248,0.779,0.248,1.28
		c0,0.842-0.243,1.504-0.728,1.984c-0.486,0.48-1.144,0.773-1.976,0.88l2.912,4.896H93.209z M90.201,41.414
		c0.938,0,1.656-0.189,2.152-0.568c0.496-0.378,0.744-0.958,0.744-1.736c0-0.79-0.25-1.347-0.752-1.672
		c-0.501-0.325-1.216-0.488-2.144-0.488h-2.096v4.464H90.201z"/>
	<path fill="#FFFFFF" d="M99.993,47.062c-0.629,0-1.21-0.131-1.744-0.394c-0.534-0.26-0.992-0.631-1.376-1.111
		c-0.384-0.479-0.683-1.059-0.896-1.735c-0.214-0.677-0.32-1.432-0.32-2.264s0.106-1.581,0.32-2.248
		c0.213-0.667,0.512-1.237,0.896-1.712c0.384-0.475,0.842-0.837,1.376-1.088c0.533-0.25,1.114-0.376,1.744-0.376
		c0.64,0,1.227,0.125,1.76,0.376c0.533,0.25,0.992,0.613,1.376,1.088c0.384,0.475,0.683,1.045,0.896,1.712s0.32,1.416,0.32,2.248
		s-0.106,1.587-0.32,2.264s-0.512,1.257-0.896,1.735c-0.384,0.48-0.843,0.852-1.376,1.111
		C101.22,46.931,100.633,47.062,99.993,47.062z M99.993,46.389c0.533,0,1.019-0.114,1.456-0.344
		c0.438-0.229,0.813-0.555,1.128-0.977c0.315-0.421,0.558-0.929,0.728-1.521c0.171-0.592,0.256-1.255,0.256-1.991
		c0-0.725-0.085-1.381-0.256-1.968c-0.17-0.587-0.414-1.085-0.728-1.496c-0.314-0.411-0.69-0.728-1.128-0.952
		s-0.923-0.336-1.456-0.336c-0.533,0-1.021,0.112-1.464,0.336c-0.443,0.224-0.819,0.542-1.128,0.952
		c-0.31,0.411-0.549,0.909-0.72,1.496c-0.17,0.586-0.256,1.243-0.256,1.968c0,0.736,0.085,1.399,0.256,1.991
		c0.171,0.593,0.411,1.101,0.72,1.521c0.309,0.422,0.685,0.747,1.128,0.977C98.972,46.275,99.46,46.389,99.993,46.389z"/>
	<path fill="#FFFFFF" d="M106.089,41.574c0-0.832,0.109-1.584,0.328-2.256c0.218-0.672,0.525-1.246,0.92-1.72
		c0.395-0.474,0.869-0.837,1.424-1.088c0.555-0.251,1.169-0.376,1.841-0.376c0.607,0,1.146,0.128,1.615,0.384
		c0.47,0.256,0.843,0.549,1.12,0.88l-0.448,0.48c-0.277-0.32-0.607-0.578-0.992-0.776c-0.383-0.197-0.815-0.296-1.295-0.296
		c-0.576,0-1.097,0.112-1.561,0.336s-0.859,0.542-1.184,0.952c-0.326,0.411-0.573,0.909-0.744,1.496
		c-0.17,0.586-0.256,1.248-0.256,1.984c0,0.736,0.085,1.399,0.256,1.991c0.171,0.594,0.416,1.098,0.736,1.514
		c0.32,0.416,0.707,0.738,1.16,0.967c0.454,0.229,0.963,0.345,1.528,0.345c0.544,0,1.026-0.104,1.447-0.319
		c0.422-0.214,0.824-0.537,1.209-0.976l0.447,0.463c-0.405,0.471-0.858,0.838-1.359,1.104c-0.502,0.267-1.094,0.399-1.776,0.399
		c-0.651,0-1.248-0.128-1.792-0.384c-0.544-0.258-1.011-0.622-1.4-1.098c-0.39-0.475-0.691-1.049-0.904-1.728
		C106.195,43.176,106.089,42.417,106.089,41.574z"/>
	<path fill="#FFFFFF" d="M115.785,36.326h0.735v5.856h0.033l5.104-5.856h0.88l-3.358,3.904l3.822,6.64h-0.848l-3.488-6.08
		l-2.145,2.448v3.632h-0.735V36.326z"/>
	<path fill="#FFFFFF" d="M133.735,46.87l-2.862-4.848h-2.24v4.848h-0.735V36.326h3.023c0.521,0,0.997,0.051,1.424,0.152
		c0.428,0.102,0.789,0.264,1.088,0.488c0.299,0.224,0.53,0.512,0.696,0.864c0.165,0.352,0.248,0.779,0.248,1.28
		c0,0.842-0.243,1.504-0.729,1.984c-0.485,0.48-1.144,0.773-1.976,0.88l2.912,4.896H133.735z M130.729,41.414
		c0.938,0,1.655-0.189,2.151-0.568c0.496-0.378,0.744-0.958,0.744-1.736c0-0.79-0.251-1.347-0.752-1.672
		c-0.502-0.325-1.217-0.488-2.146-0.488h-2.096v4.464H130.729z"/>
	<path fill="#FFFFFF" d="M136.856,36.326h0.735V46.87h-0.735V36.326z"/>
	<path fill="#FFFFFF" d="M140.696,36.326h2.447c0.812,0,1.519,0.123,2.121,0.368c0.603,0.245,1.102,0.597,1.495,1.056
		c0.396,0.459,0.688,1.008,0.88,1.648c0.192,0.64,0.289,1.36,0.289,2.16c0,0.8-0.097,1.528-0.289,2.185
		c-0.191,0.654-0.484,1.215-0.88,1.68c-0.395,0.463-0.891,0.82-1.487,1.072c-0.598,0.25-1.303,0.375-2.112,0.375h-2.464V36.326
		L140.696,36.326z M143.063,46.247c0.715,0,1.332-0.115,1.849-0.345c0.519-0.229,0.94-0.552,1.272-0.968
		c0.33-0.416,0.575-0.91,0.735-1.48c0.159-0.57,0.239-1.203,0.239-1.896c0-0.683-0.08-1.307-0.239-1.872
		c-0.16-0.565-0.405-1.05-0.735-1.456c-0.332-0.405-0.756-0.72-1.272-0.944c-0.517-0.224-1.134-0.336-1.849-0.336h-1.631v9.296
		H143.063z"/>
	<path fill="#FFFFFF" d="M149.688,41.574c0-0.832,0.111-1.584,0.336-2.256c0.225-0.672,0.541-1.246,0.951-1.72
		c0.41-0.475,0.901-0.837,1.473-1.088c0.57-0.25,1.207-0.376,1.912-0.376c0.353,0,0.672,0.037,0.959,0.112
		c0.289,0.075,0.551,0.173,0.785,0.296c0.233,0.123,0.444,0.259,0.631,0.408c0.188,0.149,0.351,0.299,0.488,0.448l-0.432,0.48
		c-0.277-0.298-0.607-0.552-0.992-0.76c-0.384-0.208-0.863-0.312-1.439-0.312c-0.607,0-1.151,0.112-1.633,0.336
		c-0.479,0.224-0.888,0.542-1.224,0.952c-0.336,0.41-0.595,0.909-0.776,1.496c-0.182,0.586-0.271,1.248-0.271,1.984
		c0,0.736,0.085,1.399,0.256,1.991c0.17,0.594,0.418,1.098,0.744,1.514c0.325,0.416,0.726,0.738,1.199,0.967
		c0.475,0.229,1.011,0.345,1.608,0.345c0.479,0,0.93-0.068,1.352-0.207c0.422-0.14,0.761-0.336,1.017-0.593v-3.28h-2.528v-0.624
		h3.232v4.176c-0.331,0.352-0.761,0.641-1.288,0.863c-0.528,0.225-1.146,0.337-1.849,0.337c-0.672,0-1.285-0.128-1.84-0.384
		c-0.555-0.258-1.029-0.622-1.424-1.098c-0.396-0.475-0.701-1.049-0.92-1.728C149.797,43.174,149.688,42.417,149.688,41.574z"/>
	<path fill="#FFFFFF" d="M160.04,36.326h5.775v0.64h-5.039v3.984H165v0.64h-4.224v4.639h5.199v0.641h-5.937L160.04,36.326
		L160.04,36.326z"/>
	<path fill="#FFFFFF" d="M170.792,41.574c0-0.832,0.109-1.584,0.328-2.256c0.219-0.672,0.525-1.246,0.92-1.72
		c0.395-0.474,0.869-0.837,1.424-1.088s1.168-0.376,1.84-0.376c0.608,0,1.146,0.128,1.616,0.384s0.843,0.549,1.12,0.88l-0.448,0.48
		c-0.276-0.32-0.606-0.578-0.991-0.776c-0.385-0.197-0.815-0.296-1.297-0.296c-0.574,0-1.096,0.112-1.56,0.336
		s-0.858,0.542-1.185,0.952c-0.326,0.411-0.574,0.909-0.744,1.496c-0.17,0.586-0.256,1.248-0.256,1.984
		c0,0.736,0.086,1.399,0.256,1.991c0.17,0.594,0.416,1.098,0.735,1.514c0.32,0.416,0.707,0.738,1.16,0.967
		c0.453,0.229,0.963,0.345,1.528,0.345c0.544,0,1.025-0.104,1.447-0.319c0.422-0.214,0.823-0.537,1.209-0.976l0.446,0.463
		c-0.405,0.471-0.858,0.838-1.358,1.104c-0.502,0.267-1.094,0.399-1.776,0.399c-0.649,0-1.248-0.128-1.792-0.384
		c-0.544-0.258-1.012-0.622-1.4-1.098c-0.389-0.475-0.689-1.049-0.902-1.728C170.897,43.176,170.792,42.417,170.792,41.574z"/>
	<path fill="#FFFFFF" d="M186.328,46.87l-2.863-4.848h-2.239v4.848h-0.736V36.326h3.023c0.522,0,0.997,0.051,1.424,0.152
		c0.428,0.102,0.789,0.264,1.088,0.488c0.3,0.224,0.531,0.512,0.697,0.864c0.164,0.352,0.247,0.779,0.247,1.28
		c0,0.842-0.243,1.504-0.729,1.984c-0.486,0.48-1.144,0.773-1.976,0.88l2.911,4.896H186.328z M183.319,41.414
		c0.938,0,1.656-0.189,2.152-0.568c0.496-0.378,0.744-0.958,0.744-1.736c0-0.79-0.251-1.347-0.752-1.672
		c-0.502-0.325-1.217-0.488-2.145-0.488h-2.096v4.464H183.319z"/>
	<path fill="#FFFFFF" d="M189.448,36.326h5.775v0.64h-5.039v3.984h4.224v0.64h-4.224v4.639h5.199v0.641h-5.938V36.326H189.448z"/>
	<path fill="#FFFFFF" d="M202.425,43.252h-4.176l-1.248,3.617h-0.736l3.713-10.544h0.735l3.712,10.544h-0.769L202.425,43.252z
		 M202.217,42.629l-0.672-1.968c-0.214-0.629-0.416-1.232-0.608-1.808c-0.19-0.576-0.379-1.189-0.56-1.84h-0.063
		c-0.183,0.651-0.369,1.264-0.561,1.84s-0.395,1.179-0.607,1.808l-0.672,1.968H202.217z"/>
	<path fill="#FFFFFF" d="M207.735,36.966h-3.359v-0.64h7.456v0.64h-3.36v9.904h-0.734v-9.904H207.735z"/>
	<path fill="#FFFFFF" d="M213.849,36.326h0.735V46.87h-0.735V36.326z"/>
	<path fill="#FFFFFF" d="M216.2,36.326h0.783l1.951,6.16c0.203,0.64,0.387,1.229,0.553,1.769s0.354,1.127,0.568,1.769h0.063
		c0.106-0.319,0.205-0.625,0.296-0.912c0.09-0.288,0.179-0.573,0.264-0.856c0.086-0.281,0.174-0.566,0.264-0.855
		c0.092-0.287,0.186-0.592,0.281-0.911l1.951-6.16h0.752l-3.455,10.543h-0.785L216.2,36.326z"/>
	<path fill="#FFFFFF" d="M225.544,36.326h5.775v0.64h-5.039v3.984h4.224v0.64h-4.224v4.639h5.199v0.641h-5.937L225.544,36.326
		L225.544,36.326z"/>
</g>
</svg>
